<?xml version="1.0" standalone="no"?>
<!DOCTYPE svg PUBLIC "-//W3C//DTD SVG 20010904//EN"
 "http://www.w3.org/TR/2001/REC-SVG-20010904/DTD/svg10.dtd">
<svg version="1.0" xmlns="http://www.w3.org/2000/svg"
 width="1024.000000pt" height="1024.000000pt" viewBox="0 0 1024.000000 1024.000000"
 preserveAspectRatio="xMidYMid meet">

<g transform="translate(0.000000,1024.000000) scale(0.100000,-0.100000)"
fill="#000000" stroke="none">
<path d="M0 5120 l0 -5120 5120 0 5120 0 0 3804 c0 3615 -1 3805 -17 3809 -17
4 -17 5 0 6 18 1 25 31 6 31 -5 0 -8 -4 -5 -9 3 -5 0 -9 -7 -8 -36 1 -57 -4
-52 -13 3 -5 -2 -10 -12 -10 -15 0 -16 -2 -3 -10 13 -8 12 -10 -3 -10 -10 0
-15 -4 -12 -10 3 -5 -1 -10 -9 -10 -9 0 -16 5 -16 10 0 6 -6 5 -14 -2 -8 -7
-12 -16 -9 -20 2 -5 -3 -8 -12 -8 -9 0 -14 4 -10 10 3 5 -7 3 -22 -5 -15 -8
-27 -18 -26 -22 3 -14 -19 -33 -30 -26 -6 4 -8 -2 -5 -15 4 -14 2 -22 -7 -22
-16 0 -39 -26 -28 -32 4 -3 2 -3 -4 -2 -19 5 -43 -7 -43 -20 0 -6 -43 -55 -95
-109 -53 -54 -93 -102 -90 -107 3 -6 -1 -10 -10 -10 -19 0 -47 -25 -38 -34 4
-3 1 -6 -6 -6 -7 0 -9 -4 -6 -10 3 -5 -3 -10 -13 -10 -11 0 -26 -8 -33 -17
-11 -15 -11 -16 1 -5 20 17 34 15 16 -3 -8 -8 -22 -15 -30 -15 -9 0 -16 -7
-16 -16 0 -8 -4 -13 -9 -10 -5 4 -24 -12 -43 -33 -19 -22 -40 -41 -48 -43 -8
-2 -21 -16 -29 -32 -8 -16 -17 -24 -19 -18 -2 7 -8 12 -13 12 -6 0 -8 -4 -4
-10 8 -12 -16 -50 -32 -50 -7 0 -13 6 -13 12 0 7 -11 1 -24 -12 -13 -14 -21
-28 -19 -32 2 -5 -5 -8 -15 -8 -23 0 -37 -26 -19 -34 9 -3 9 -5 0 -5 -6 -1
-15 4 -18 9 -7 12 -26 14 -24 3 4 -23 -4 -31 -34 -37 -20 -4 -39 -16 -49 -34
-10 -15 -18 -21 -18 -14 0 6 -8 12 -17 11 -11 0 -13 -3 -5 -6 19 -8 14 -22 -7
-16 -13 3 -21 -2 -26 -16 -5 -18 -16 -23 -41 -20 -3 0 -14 -9 -24 -21 -11 -12
-25 -20 -32 -18 -7 3 -19 -1 -26 -9 -7 -7 -23 -13 -35 -13 -18 0 -19 -2 -7
-10 12 -8 9 -10 -12 -10 -16 0 -28 -4 -28 -10 0 -5 -11 -10 -25 -10 -22 0 -29
-9 -27 -31 1 -4 -6 -6 -16 -5 -9 0 -21 -9 -27 -21 -5 -13 -14 -22 -20 -22 -24
3 -35 -2 -35 -16 0 -9 -12 -18 -29 -21 -18 -4 -28 -12 -27 -22 1 -12 -8 -17
-29 -18 -16 -1 -31 -6 -33 -13 -2 -6 -10 -11 -18 -11 -9 0 -13 -3 -11 -7 3 -5
-1 -13 -8 -20 -10 -10 -14 -10 -17 -1 -3 7 -14 1 -28 -15 -13 -14 -27 -24 -32
-21 -4 3 -8 -1 -8 -9 0 -8 -7 -18 -16 -21 -8 -3 -12 -2 -9 4 9 15 -4 12 -20
-4 -8 -7 -11 -17 -7 -21 4 -4 -10 -5 -31 -3 -28 3 -36 1 -33 -9 3 -7 -1 -13
-8 -13 -21 0 -37 -24 -26 -38 7 -8 7 -9 -1 -3 -15 12 -58 1 -53 -14 3 -7 0
-16 -7 -21 -8 -4 -10 -3 -5 4 5 8 -1 12 -14 12 -12 0 -18 -4 -15 -10 4 -6 -7
-10 -27 -10 -25 0 -29 -3 -18 -10 13 -9 13 -10 -1 -10 -8 0 -20 5 -26 11 -8 8
-11 6 -10 -7 2 -13 -7 -20 -28 -25 -16 -4 -24 -7 -16 -8 8 0 11 -4 8 -7 -4 -4
-14 -1 -24 7 -11 9 -14 10 -9 2 4 -8 2 -13 -8 -13 -8 0 -18 5 -21 10 -10 16
-25 12 -19 -5 4 -8 -1 -17 -10 -21 -9 -3 -14 -10 -11 -14 3 -4 -2 -10 -9 -13
-18 -7 -40 18 -31 33 4 6 1 17 -5 25 -7 8 -9 15 -6 15 4 0 1 6 -6 14 -10 10
-15 11 -21 2 -5 -7 -7 -3 -4 10 2 12 0 29 -5 38 -6 10 -5 16 1 16 6 0 8 7 5
15 -4 8 -10 15 -15 15 -4 0 -6 -6 -3 -14 3 -8 0 -17 -6 -21 -9 -6 -9 -10 1
-17 11 -8 11 -9 -1 -5 -8 2 -16 17 -17 35 -2 25 2 32 20 35 15 4 13 5 -8 4
-32 -1 -55 8 -55 24 0 5 11 9 25 9 18 0 23 4 18 16 -5 13 -7 13 -14 2 -7 -10
-9 -11 -9 0 0 7 -4 11 -9 8 -11 -7 -9 44 3 63 7 11 10 11 17 0 7 -11 9 -10 9
5 0 13 -5 17 -19 13 -14 -3 -18 2 -19 25 l-1 30 20 -23 c14 -17 19 -18 19 -6
0 8 -6 18 -12 20 -10 4 -10 6 0 6 6 1 12 6 12 12 0 5 -4 7 -10 4 -6 -3 -10 -1
-10 5 0 6 -5 8 -12 4 -10 -6 -10 -5 -1 7 9 12 10 18 1 27 -8 8 -8 15 2 27 11
13 11 18 1 24 -9 6 -8 11 4 21 14 12 14 15 -1 31 -13 14 -14 22 -5 32 6 8 8
17 4 20 -3 4 0 7 9 7 8 0 20 12 26 26 7 14 8 23 2 19 -17 -10 -11 12 7 26 11
10 14 10 9 2 -4 -7 -2 -13 3 -13 6 0 11 12 11 26 0 14 -4 23 -9 19 -5 -3 -12
-1 -16 5 -3 5 -1 10 5 10 6 0 8 5 5 10 -4 6 -1 9 7 8 7 -2 13 6 13 17 0 11 4
26 8 33 5 6 6 16 3 21 -3 4 2 18 12 29 12 14 18 34 16 63 -1 28 1 37 7 28 6
-10 9 -7 9 12 0 15 7 30 16 33 8 3 12 10 9 16 -3 5 1 10 10 10 9 0 13 5 10 10
-4 6 -12 7 -18 4 -7 -4 0 5 15 20 20 19 26 33 23 56 -2 22 1 30 11 30 8 0 12
5 9 10 -3 6 0 10 7 10 9 0 9 3 -2 10 -11 7 -11 10 -2 10 7 0 10 5 7 10 -3 6
-2 10 3 10 6 0 13 7 16 16 3 8 2 12 -3 9 -5 -3 -12 -1 -16 5 -3 5 -1 10 5 10
6 0 8 5 5 10 -3 6 1 10 10 10 9 0 13 4 10 10 -3 6 0 10 7 10 9 0 9 3 -2 10
-12 8 -12 10 -1 10 11 0 10 5 -5 23 -10 12 -12 16 -4 10 20 -19 32 -16 21 5
-6 11 -5 30 4 54 7 20 10 37 6 36 -25 -3 -51 4 -46 12 3 5 13 6 22 3 15 -6 16
-5 3 9 -8 9 -17 13 -20 9 -3 -3 -14 -7 -25 -8 -11 -1 -14 0 -7 3 6 3 10 10 6
15 -3 5 3 9 13 10 13 1 11 3 -7 9 -14 4 -18 8 -9 9 9 1 16 8 16 16 0 11 -4 12
-11 5 -13 -13 -29 -13 -21 0 3 6 -1 10 -10 10 -9 0 -14 -4 -11 -8 3 -5 -1 -9
-9 -9 -10 0 -11 5 -4 19 5 10 6 18 2 17 -4 -1 -19 -1 -32 0 l-24 1 22 19 c12
11 18 22 12 25 -5 4 -12 2 -16 -3 -3 -6 -12 -8 -19 -5 -9 4 -13 -2 -11 -19 2
-19 -1 -24 -13 -22 -10 2 -25 4 -34 4 -18 1 -14 31 4 31 5 0 6 -4 3 -10 -3 -5
1 -10 9 -10 9 0 13 6 10 15 -8 19 -61 15 -60 -5 1 -9 -10 -16 -27 -18 -15 -2
-25 -8 -22 -13 4 -5 1 -9 -4 -9 -6 0 -11 5 -11 11 0 6 -8 1 -18 -11 -13 -16
-29 -22 -56 -22 -27 0 -34 -3 -25 -9 9 -6 10 -9 2 -9 -6 0 -15 5 -19 11 -4 8
-9 7 -15 -2 -5 -8 -9 -9 -9 -4 0 6 -9 11 -19 12 -15 1 -18 -3 -14 -15 6 -16 5
-15 -14 1 -22 19 -38 23 -27 5 5 -8 0 -9 -14 -6 -28 8 -28 -7 -1 -26 21 -14
21 -15 -9 -14 -17 1 -29 5 -26 9 3 5 -2 6 -10 3 -9 -3 -16 -10 -16 -14 0 -4
-7 -11 -16 -14 -8 -3 -12 -2 -9 4 9 15 -12 12 -28 -5 -8 -8 -17 -11 -21 -8 -3
4 -6 1 -6 -5 0 -7 -9 -12 -21 -12 -11 0 -17 -4 -14 -10 3 -5 0 -10 -8 -10 -8
0 -26 -9 -40 -20 -14 -11 -33 -20 -42 -20 -9 0 -13 -4 -10 -10 3 -5 2 -10 -4
-10 -5 0 -12 6 -14 13 -3 6 -6 1 -7 -13 -1 -14 -4 -19 -7 -12 -2 6 -11 12 -19
12 -9 0 -12 -4 -9 -10 3 -5 -1 -10 -9 -10 -9 0 -16 -4 -16 -8 0 -5 -11 -14
-25 -20 -30 -14 -46 -16 -27 -3 11 6 9 9 -6 13 -11 3 -26 1 -33 -4 -11 -8 -10
-9 4 -4 9 3 17 1 17 -4 0 -6 -7 -10 -15 -10 -8 0 -15 -4 -15 -10 0 -5 -5 -10
-11 -10 -5 0 -7 4 -4 10 3 6 -1 7 -9 4 -9 -3 -16 -11 -16 -17 0 -6 -3 -7 -6
-4 -4 4 -20 -8 -36 -26 -17 -17 -27 -26 -22 -18 5 11 3 13 -9 8 -10 -3 -17 -2
-17 3 0 9 14 14 32 11 4 0 5 6 2 14 -8 20 -11 19 -40 -10 -14 -14 -20 -25 -14
-25 30 0 -8 -32 -42 -35 -3 0 -10 -3 -14 -7 -4 -5 -18 -8 -30 -8 -16 0 -22 -4
-18 -14 4 -11 0 -13 -15 -9 -12 3 -21 1 -21 -6 0 -6 -7 -11 -16 -11 -20 0 -45
-25 -36 -35 4 -5 -1 -5 -10 -2 -11 4 -21 0 -27 -11 -6 -9 -11 -13 -11 -9 0 5
-11 -5 -25 -21 -18 -22 -31 -29 -48 -25 -18 4 -19 3 -7 -6 12 -9 11 -11 -8
-11 -13 0 -20 -4 -17 -10 3 -5 -1 -10 -9 -10 -15 0 -21 -12 -17 -34 1 -4 -3
-14 -9 -20 -5 -7 -6 -17 -2 -22 4 -4 0 -3 -9 4 -13 9 -16 9 -16 -3 0 -8 6 -15
12 -15 10 0 12 -16 6 -63 -1 -5 -5 -5 -11 -2 -6 3 -10 2 -10 -4 0 -5 5 -11 12
-13 7 -3 11 -19 10 -42 -2 -28 0 -36 10 -30 10 5 11 4 1 -7 -7 -7 -13 -18 -13
-24 0 -5 5 -3 10 5 8 12 10 11 10 -5 0 -12 4 -25 10 -31 5 -5 11 -22 12 -36 1
-15 4 -25 7 -23 2 3 10 -3 17 -13 9 -13 9 -19 1 -24 -9 -6 -9 -8 1 -8 6 0 12
-7 12 -15 0 -8 6 -14 13 -13 7 2 11 -5 9 -16 -2 -11 1 -15 7 -11 7 4 11 -4 11
-20 0 -15 4 -24 10 -20 6 3 11 1 11 -4 4 -33 19 -71 28 -71 5 0 14 -13 21 -30
7 -16 15 -30 19 -30 3 0 12 -14 20 -31 10 -23 16 -28 22 -18 6 10 9 8 9 -9 0
-15 4 -21 12 -16 7 4 8 3 4 -5 -8 -12 38 -99 62 -117 9 -7 12 -16 7 -24 -5 -9
-4 -11 3 -6 7 4 12 1 12 -9 0 -10 5 -13 13 -9 6 4 9 3 4 -1 -8 -9 19 -56 40
-68 7 -4 13 -13 13 -20 0 -8 -4 -6 -11 3 -9 12 -10 12 -5 -3 3 -10 6 -21 6
-23 0 -3 4 -3 8 0 4 2 8 -3 9 -12 2 -27 27 -92 35 -92 5 0 8 -11 8 -25 0 -14
4 -25 9 -25 4 0 8 -12 8 -27 0 -16 10 -66 22 -113 13 -47 25 -98 28 -115 2
-16 6 -35 8 -42 2 -7 0 -15 -5 -18 -6 -4 -10 -12 -10 -18 0 -8 3 -8 9 1 16 25
19 -63 11 -299 -7 -191 -13 -257 -34 -362 -81 -398 -273 -760 -554 -1049 -102
-105 -104 -107 -77 -114 44 -11 463 3 562 19 332 54 655 165 913 313 l75 43
90 -20 c134 -29 154 -37 170 -69 19 -37 19 -103 1 -138 -21 -40 -72 -85 -87
-77 -7 5 -10 4 -6 -2 13 -22 -361 -208 -633 -316 -468 -185 -739 -235 -1212
-224 -261 6 -307 9 -324 19 -6 4 -50 15 -98 24 l-88 17 -126 -31 c-407 -101
-736 -106 -1127 -17 -38 8 -89 20 -113 25 -24 5 -49 13 -55 17 -7 4 -20 9 -29
10 -42 7 -323 125 -338 142 -3 3 -11 7 -18 9 -12 2 -71 40 -82 53 -3 3 -15 12
-28 21 -95 64 -292 267 -423 434 -41 51 -55 62 -87 68 -57 9 -383 -11 -542
-34 -200 -28 -380 -71 -380 -91 0 -6 8 -8 19 -4 23 7 155 23 159 19 4 -2 -204
-68 -293 -92 -103 -28 -163 -43 -195 -48 -19 -3 -67 -17 -106 -30 -39 -13 -87
-24 -108 -24 -136 0 -217 155 -128 246 55 55 421 209 662 278 161 46 418 109
603 147 59 12 107 26 107 31 0 5 -7 25 -16 46 -77 179 -134 495 -134 744 0
387 99 692 360 1114 51 82 150 241 220 354 69 113 259 419 422 680 162 261
400 646 528 855 300 490 345 559 394 601 48 41 104 58 162 49 88 -13 95 -22
344 -430 101 -166 191 -307 200 -315 3 -3 14 -21 24 -40 11 -19 23 -37 26 -40
4 -3 17 -23 28 -45 11 -22 29 -49 39 -60 11 -11 28 -35 38 -52 11 -18 23 -33
27 -33 4 0 8 -7 8 -15 0 -8 5 -15 10 -15 6 0 10 -5 10 -10 0 -11 10 -24 43
-61 9 -10 17 -21 17 -24 0 -29 1 -30 8 -18 5 8 15 0 31 -23 18 -26 30 -34 44
-30 21 5 53 -9 78 -37 15 -15 17 -16 23 -2 3 9 2 13 -4 10 -6 -3 -10 -1 -10 4
0 18 45 12 59 -8 12 -16 16 -17 28 -6 15 16 18 29 3 20 -6 -3 -7 1 -4 10 5 12
10 13 17 6 14 -14 30 -14 22 -1 -3 6 -1 10 5 10 6 0 8 6 4 13 -4 6 -3 9 1 4
10 -9 55 19 74 46 11 15 15 16 22 6 6 -10 9 -8 9 9 0 13 4 21 9 18 5 -4 12 0
14 6 3 8 6 6 6 -5 1 -15 3 -16 15 -5 9 8 11 17 5 22 -15 17 -10 29 7 15 16
-13 23 -8 38 26 3 6 9 3 15 -5 8 -11 11 -12 11 -2 0 7 5 10 10 7 6 -3 10 -2
10 4 0 5 -5 11 -11 13 -6 2 -10 12 -8 23 4 18 5 18 22 1 16 -17 17 -16 18 6 1
13 1 26 0 31 -2 12 27 8 32 -5 4 -10 7 -10 18 0 11 10 11 16 1 32 -8 13 -8 20
-2 20 12 0 104 90 92 90 -4 0 0 5 8 10 10 7 11 10 2 10 -7 0 20 33 60 74 96
98 119 126 113 136 -3 4 5 6 17 2 l23 -5 -20 24 c-12 14 -13 19 -4 11 13 -10
19 -10 28 1 6 8 8 17 4 21 -4 4 0 4 9 1 11 -4 23 4 39 26 13 18 18 29 11 25
-7 -4 -12 -2 -12 3 0 6 5 12 10 12 6 1 14 2 20 3 5 0 15 7 22 15 10 10 10 12
1 7 -22 -12 -14 12 9 28 12 9 19 16 16 16 -4 0 5 12 19 26 20 20 28 23 34 12
6 -9 9 -7 9 9 0 12 15 38 34 57 19 19 32 37 29 40 -4 3 0 6 8 6 8 0 21 10 29
22 8 12 29 37 47 56 18 18 32 35 32 38 1 2 1 9 1 15 0 5 4 8 9 4 13 -7 55 37
94 98 10 15 24 27 32 27 8 0 14 6 13 13 -2 6 3 11 10 9 8 -1 11 2 7 8 -3 5 -1
10 6 10 8 0 8 4 -1 15 -11 13 -10 14 1 10 15 -6 59 28 59 45 0 6 7 10 16 10
14 0 14 3 4 15 -11 13 -10 14 5 9 13 -5 16 -4 11 4 -4 8 0 12 12 12 12 0 23
12 32 35 7 19 17 32 21 30 4 -3 13 3 20 12 12 14 12 16 -1 8 -12 -7 -13 -6 -3
7 7 8 9 19 5 23 -4 5 0 6 10 2 11 -4 18 1 22 19 4 13 13 24 21 24 7 0 17 9 20
21 4 12 12 18 21 15 12 -4 21 16 12 27 -2 1 25 31 60 65 34 33 62 66 62 73 0
6 7 8 17 5 10 -4 14 -4 11 0 -8 8 16 34 32 34 6 0 9 4 6 9 -4 5 0 12 6 14 10
4 10 6 0 6 -10 1 -10 4 0 15 7 8 16 12 21 9 4 -2 7 3 7 11 0 8 9 18 20 21 11
4 28 17 36 31 9 13 23 24 30 24 8 0 14 9 14 20 0 11 5 20 10 20 14 0 12 27 -2
33 -7 3 -1 6 14 6 21 1 25 5 21 21 -3 12 0 20 6 20 7 0 9 5 6 10 -3 6 -2 10 4
10 5 0 12 -6 14 -12 3 -8 6 -6 6 5 1 9 -4 17 -10 17 -5 0 -9 10 -7 22 3 22 -1
24 -43 19 -8 -1 -8 -6 1 -16 11 -13 10 -14 -4 -9 -15 6 -20 17 -17 37 1 4 -8
3 -19 -3 -16 -9 -20 -8 -20 4 0 10 -6 13 -15 10 -8 -4 -15 -16 -15 -28 0 -16
-2 -18 -9 -6 -6 8 -8 17 -6 21 6 9 -77 5 -93 -5 -7 -4 -16 -5 -19 -2 -4 3 0 6
8 6 12 0 12 2 -1 10 -10 6 -20 4 -32 -7 -10 -9 -18 -12 -18 -6 0 5 -7 10 -15
10 -8 0 -12 -4 -8 -10 7 -12 -50 -5 -59 8 -5 6 -8 5 -8 -2 0 -7 -11 -13 -24
-13 -13 0 -27 -6 -29 -12 -4 -9 -8 -10 -14 -2 -12 16 -93 17 -93 1 0 -7 -3 -8
-8 -2 -11 16 -51 14 -45 -2 4 -9 0 -11 -13 -6 -11 3 -22 11 -25 16 -3 4 -13 2
-22 -7 -13 -14 -16 -14 -28 0 -10 12 -14 12 -20 2 -5 -7 -9 -8 -9 -3 0 6 -9
11 -20 12 -11 1 -19 -2 -17 -7 1 -4 -2 -8 -8 -8 -5 0 -9 4 -8 8 2 5 -16 8 -38
8 -27 0 -37 -3 -28 -9 11 -7 10 -9 -3 -9 -13 0 -18 8 -19 28 -1 16 -3 20 -6
10 -2 -10 -13 -18 -24 -18 -11 0 -18 3 -16 8 3 4 -1 13 -9 20 -8 7 -14 8 -14
2 0 -5 -10 -10 -22 -10 -19 0 -20 2 -8 10 13 8 12 10 -4 10 -16 0 -17 3 -8 12
16 16 15 29 0 26 -7 -2 -12 3 -10 10 1 6 -2 12 -8 12 -5 0 -10 5 -10 11 0 5 4
8 8 5 5 -3 9 10 9 29 0 19 -4 35 -8 35 -3 0 -9 11 -11 25 -3 14 -1 25 3 25 5
0 9 -4 9 -10 0 -5 5 -10 12 -10 6 0 3 8 -7 20 -10 11 -22 17 -26 14 -16 -9
-10 3 8 17 11 10 14 10 9 2 -4 -7 -2 -13 3 -13 14 0 14 23 1 36 -7 7 -4 17 10
31 12 14 15 23 8 25 -8 3 -9 11 -3 24 5 10 9 28 9 39 1 11 5 20 11 20 5 0 9
-9 8 -20 -2 -13 0 -15 4 -5 3 8 11 21 17 29 8 11 8 13 -1 8 -6 -4 -14 -3 -18
3 -4 7 -1175 10 -3596 10 l-3589 0 0 -5120z m7135 4810 c3 -5 1 -10 -4 -10 -6
0 -11 5 -11 10 0 6 2 10 4 10 3 0 8 -4 11 -10z m-165 -1534 c0 -3 -4 -8 -10
-11 -5 -3 -10 -1 -10 4 0 6 5 11 10 11 6 0 10 -2 10 -4z m-370 -451 c0 -8 -2
-15 -4 -15 -2 0 -6 7 -10 15 -3 8 -1 15 4 15 6 0 10 -7 10 -15z m1420 -335 c0
-5 -2 -10 -4 -10 -3 0 -8 5 -11 10 -3 6 -1 10 4 10 6 0 11 -4 11 -10z m120
-119 c0 -6 -4 -12 -8 -15 -5 -3 -9 1 -9 9 0 8 4 15 9 15 4 0 8 -4 8 -9z m-280
-1241 c0 -5 -2 -10 -4 -10 -3 0 -8 5 -11 10 -3 6 -1 10 4 10 6 0 11 -4 11 -10z
m40 -41 c0 -14 -17 -10 -23 5 -4 10 -1 13 9 9 7 -3 14 -9 14 -14z m-1835
-2979 l80 -20 -60 5 c-66 5 -168 33 -125 34 14 0 61 -8 105 -19z m-848 -655
c52 -15 143 -86 143 -110 0 -7 -21 -29 -47 -48 l-48 -36 -25 24 c-46 42 -89
58 -148 53 -63 -6 -92 -30 -92 -79 0 -34 32 -53 157 -95 110 -37 151 -62 180
-112 51 -87 22 -208 -65 -263 -88 -56 -205 -61 -310 -13 -62 27 -132 80 -131
97 0 7 20 29 44 50 l44 39 43 -29 c61 -42 97 -54 161 -55 67 -2 97 19 97 65 0
46 -23 63 -141 102 -175 59 -214 95 -214 203 0 83 23 134 76 169 81 54 178 67
276 38z m-2796 -120 c4 -66 7 -120 8 -121 7 -5 233 -12 249 -7 20 5 22 12 24
127 l3 121 67 3 66 3 4 -73 c1 -40 2 -198 0 -350 l-4 -278 -69 0 -68 0 -3 158
-3 157 -120 3 c-180 4 -165 17 -165 -147 0 -77 -3 -146 -6 -155 -5 -12 -21
-16 -73 -16 l-66 0 3 337 c1 186 4 344 7 351 3 9 24 12 72 10 l68 -3 6 -120z
m1512 58 c4 -78 1 -623 -4 -628 -8 -7 -86 -13 -106 -8 -17 4 -23 13 -23 32 0
14 -4 21 -8 15 -4 -5 -24 -21 -46 -34 -74 -45 -202 -23 -271 45 -95 96 -94
307 3 398 77 73 204 95 290 50 l42 -23 0 103 c0 57 3 107 7 110 3 4 30 7 59 7
l52 0 5 -67z m3499 -129 c23 -15 55 -39 70 -55 14 -15 29 -25 32 -21 3 3 6 0
6 -6 0 -7 5 -12 11 -12 5 0 7 4 4 10 -3 5 0 7 8 5 7 -3 19 4 25 17 13 24 56
54 107 74 38 16 135 17 172 3 46 -17 103 -60 103 -78 0 -9 -18 -34 -39 -55
-37 -37 -41 -38 -74 -27 -43 14 -104 11 -104 -5 0 -7 6 -10 14 -7 7 3 16 -2
19 -11 3 -9 9 -14 13 -12 15 9 147 -72 169 -104 47 -70 20 -168 -58 -214 -29
-17 -52 -21 -130 -21 -84 0 -101 3 -146 27 -54 28 -84 53 -84 69 0 5 16 26 35
47 19 22 32 41 29 45 -3 3 1 5 8 4 32 -1 45 4 45 18 0 8 -2 13 -5 10 -3 -2
-14 2 -26 10 -25 18 -40 19 -30 3 6 -10 4 -10 -7 0 -19 17 -36 15 -59 -8 -14
-14 -33 -20 -66 -20 -27 0 -43 -4 -39 -10 3 -5 1 -10 -4 -10 -6 0 -11 4 -11 9
0 6 -49 10 -114 9 l-114 0 10 -24 c6 -13 14 -21 19 -19 4 3 9 0 11 -6 2 -5 21
-13 43 -15 30 -4 51 0 87 19 45 25 88 27 88 4 0 -6 3 -8 6 -4 3 3 18 -5 33
-19 21 -19 24 -27 15 -42 -18 -29 -92 -81 -132 -92 -51 -14 -139 -12 -185 4
-47 17 -143 90 -164 126 -21 36 -42 29 -71 -20 -27 -47 -74 -84 -131 -105 -60
-21 -109 -19 -175 6 -31 12 -58 20 -61 17 -9 -9 -14 -54 -14 -140 l-1 -88 -59
0 c-33 0 -62 4 -65 8 -3 5 -6 64 -7 133 -1 74 -6 134 -13 149 -7 14 -11 33 -8
44 2 10 -2 22 -10 27 -7 5 -8 9 -3 9 6 0 10 24 10 54 -1 30 2 53 6 51 9 -6 19
76 19 165 0 88 2 90 75 90 32 0 48 -5 58 -20 13 -19 14 -19 57 2 101 50 217
27 309 -62 28 -27 51 -55 51 -62 0 -9 3 -8 10 2 8 12 10 12 10 -5 0 -16 5 -12
22 15 23 37 76 90 90 90 5 0 22 9 37 21 65 48 199 49 273 3z m-2730 -6 c80
-45 83 -52 86 -289 l3 -209 -65 0 c-60 0 -66 2 -66 20 0 20 -2 20 -50 -5 -104
-53 -229 -22 -264 65 -21 53 -20 75 4 124 32 66 114 106 253 122 66 7 76 28
30 64 -24 19 -37 21 -85 17 -32 -3 -74 -15 -97 -28 -23 -12 -42 -21 -44 -18
-24 29 -48 83 -43 95 6 17 83 54 136 65 59 13 158 2 202 -23z m1058 16 c60
-18 134 -81 128 -109 -2 -9 -24 -28 -51 -42 l-48 -27 -14 21 c-35 49 -127 62
-183 25 -59 -38 -73 -148 -27 -208 53 -70 124 -80 199 -29 l35 24 46 -25 c54
-31 57 -52 13 -90 -141 -118 -352 -84 -430 70 -25 49 -35 159 -19 208 50 153
196 228 351 182z m515 -10 c54 -25 85 -72 95 -146 11 -73 13 -254 4 -322 l-7
-46 -48 0 c-57 0 -79 7 -79 27 0 8 -3 13 -7 11 -61 -31 -96 -42 -143 -42 -139
-1 -218 110 -160 223 30 61 112 99 245 116 41 5 51 10 52 26 4 49 -112 67
-187 29 -22 -11 -43 -20 -49 -20 -5 0 -21 21 -36 46 l-27 46 23 16 c12 10 50
27 83 40 49 18 75 22 133 18 39 -2 88 -12 108 -22z m-3216 -89 c20 -55 40
-108 44 -118 3 -9 7 -21 8 -25 1 -4 10 -25 21 -46 25 -48 20 -54 99 139 l57
140 57 9 c37 6 59 6 66 -1 10 -10 -14 -77 -131 -358 -23 -55 -56 -138 -72
-184 -37 -102 -82 -152 -151 -169 -98 -25 -133 -9 -122 56 6 38 10 42 43 48
54 10 67 19 86 59 l17 36 -55 138 c-102 256 -137 354 -132 368 4 10 22 13 67
11 l61 -3 37 -100z m1084 74 c5 -18 7 -18 49 6 27 16 59 25 86 25 l42 0 0 -65
0 -65 -40 0 c-55 0 -94 -22 -114 -64 -12 -27 -16 -66 -16 -180 0 -163 7 -150
-80 -146 -25 1 -48 7 -52 13 -9 14 -10 442 -2 474 4 16 15 23 38 25 53 5 84
-3 89 -23z m2260 -300 c-8 -28 -12 -23 -11 12 1 17 4 25 8 18 4 -6 5 -20 3
-30z"/>
<path d="M3611 2272 c-45 -22 -71 -73 -71 -137 0 -98 61 -161 148 -152 136 14
165 231 39 290 -45 22 -73 21 -116 -1z"/>
<path d="M6617 2240 c-22 -19 -30 -38 -34 -72 -6 -53 3 -102 17 -93 5 3 7 0 4
-8 -3 -9 8 -23 31 -37 76 -47 151 -44 175 8 25 53 29 93 14 142 -12 42 -20 51
-58 70 -57 27 -111 24 -149 -10z"/>
<path d="M7687 2058 c2 -5 -2 -8 -9 -8 -7 -1 -2 -7 12 -15 14 -8 32 -14 40
-14 8 0 4 5 -10 10 -23 10 -24 11 -7 24 17 12 16 13 -7 11 -13 0 -22 -4 -19
-8z"/>
<path d="M7738 2043 c6 -2 18 -2 25 0 6 3 1 5 -13 5 -14 0 -19 -2 -12 -5z"/>
<path d="M4546 2094 c-69 -17 -86 -28 -86 -59 0 -39 33 -58 92 -53 42 5 57 11
80 37 17 19 28 43 28 61 0 26 -3 30 -27 29 -16 0 -55 -7 -87 -15z"/>
<path d="M6095 2082 c-41 -14 -51 -22 -53 -43 -5 -42 35 -66 104 -61 21 2 37
15 75 62 12 14 16 26 10 28 -6 2 -11 10 -11 18 0 19 -62 18 -125 -4z"/>
<path d="M7165 10160 c-3 -6 1 -17 9 -26 15 -14 16 -14 16 0 0 9 -6 16 -12 16
-9 0 -8 4 2 10 9 6 10 10 3 10 -6 0 -15 -5 -18 -10z"/>
<path d="M7157 10097 c-3 -8 3 -13 15 -14 10 -1 18 3 16 9 -6 18 -25 21 -31 5z"/>
<path d="M6295 7690 c-3 -5 1 -10 10 -10 9 0 13 5 10 10 -3 6 -8 10 -10 10 -2
0 -7 -4 -10 -10z"/>
<path d="M8050 7680 c-12 -23 -5 -26 16 -6 8 9 10 17 5 21 -6 3 -15 -4 -21
-15z"/>
<path d="M6065 7680 c-3 -6 1 -7 9 -4 18 7 21 14 7 14 -6 0 -13 -4 -16 -10z"/>
<path d="M8123 7635 c0 -8 7 -15 15 -15 12 0 12 3 2 15 -7 8 -13 15 -15 15 -1
0 -2 -7 -2 -15z"/>
<path d="M7792 7614 c-7 -8 -8 -14 -3 -14 10 0 25 19 20 25 -2 1 -10 -3 -17
-11z"/>
<path d="M7700 7610 c0 -5 5 -10 11 -10 5 0 7 5 4 10 -3 6 -8 10 -11 10 -2 0
-4 -4 -4 -10z"/>
<path d="M7186 7403 c5 -5 12 -12 16 -18 4 -6 8 -2 8 8 0 9 -7 17 -17 17 -9 0
-12 -3 -7 -7z"/>
<path d="M6940 7284 c0 -8 5 -12 10 -9 6 4 8 11 5 16 -9 14 -15 11 -15 -7z"/>
<path d="M9380 6925 c0 -9 6 -12 15 -9 8 4 12 10 9 15 -8 14 -24 10 -24 -6z"/>
<path d="M7926 6712 c-3 -5 1 -9 9 -9 8 0 12 4 9 9 -3 4 -7 8 -9 8 -2 0 -6 -4
-9 -8z"/>
<path d="M7884 6658 c4 -20 26 -21 26 -1 0 14 -2 15 -9 4 -6 -9 -10 -10 -14
-2 -4 8 -5 8 -3 -1z"/>
<path d="M7966 6272 c-3 -5 1 -9 9 -9 8 0 12 4 9 9 -3 4 -7 8 -9 8 -2 0 -6 -4
-9 -8z"/>
<path d="M8136 6175 c-3 -9 0 -15 9 -15 9 0 12 6 9 15 -4 8 -7 15 -9 15 -2 0
-5 -7 -9 -15z"/>
<path d="M8010 6155 c-9 -10 -9 -15 -1 -15 6 0 11 -7 11 -16 0 -8 -4 -12 -10
-9 -5 3 -10 1 -10 -4 0 -15 11 -13 35 5 19 15 19 15 1 26 -15 8 -16 12 -5 19
8 5 9 9 3 9 -6 0 -17 -7 -24 -15z"/>
<path d="M6977 5647 c5 -155 3 -318 -6 -362 -5 -28 -10 -57 -9 -65 0 -23 -43
-131 -67 -170 -27 -42 -65 -86 -65 -75 0 4 -10 -4 -23 -18 -25 -30 -39 -33
-56 -13 -8 10 -21 12 -47 6 -29 -7 -34 -5 -32 9 2 9 -3 15 -10 13 -12 -2 -24
5 -62 40 -13 12 -20 13 -24 5 -2 -7 -5 -4 -5 5 -1 12 -6 15 -18 11 -11 -4 -14
-3 -9 5 7 12 -4 16 -36 13 -10 -1 -18 3 -18 9 0 6 -4 8 -10 5 -5 -3 -10 1 -10
9 0 9 -8 16 -19 16 -11 0 -23 5 -26 10 -3 6 -15 10 -26 10 -12 0 -17 4 -13 11
4 7 -1 7 -16 -1 -18 -10 -21 -9 -15 1 6 9 3 11 -8 6 -9 -3 -22 0 -30 7 -16 16
-67 18 -67 2 0 -6 -4 -4 -9 4 -6 8 -7 19 -4 25 3 5 0 4 -8 -2 -14 -14 -63 -18
-55 -5 3 5 -1 9 -9 9 -8 0 -15 -4 -15 -8 0 -3 -9 -9 -21 -12 -15 -4 -19 -2
-15 9 3 8 1 14 -4 14 -6 0 -10 -4 -10 -9 0 -5 -7 -12 -16 -15 -12 -4 -15 -2
-10 9 5 13 2 14 -15 4 -11 -6 -27 -8 -35 -5 -9 3 -14 -1 -14 -12 0 -14 -2 -14
-9 -3 -6 8 -19 12 -35 9 -15 -3 -29 -2 -31 3 -3 4 -18 4 -33 0 -15 -4 -33 -6
-39 -4 -7 3 -13 1 -13 -4 0 -5 -12 -8 -27 -6 -19 3 -36 -3 -50 -17 -20 -18
-23 -19 -23 -4 0 15 -2 16 -17 2 -10 -9 -24 -13 -30 -11 -7 3 -13 -2 -13 -11
0 -9 -6 -13 -14 -10 -8 3 -17 1 -21 -5 -3 -6 -15 -11 -26 -11 -10 0 -19 -4
-19 -9 0 -5 -6 -9 -12 -8 -7 0 -24 -1 -38 -2 -20 -1 -22 -3 -10 -11 12 -8 10
-10 -10 -11 -14 -1 -28 -1 -32 0 -5 0 -8 -4 -8 -9 0 -6 -9 -10 -21 -10 -11 0
-18 -3 -16 -7 3 -5 -1 -14 -9 -21 -8 -7 -14 -8 -14 -2 0 5 -9 10 -20 10 -11 0
-20 -4 -20 -10 0 -5 -7 -10 -15 -10 -8 0 -15 -4 -15 -10 0 -5 -9 -10 -20 -10
-11 0 -20 -4 -20 -10 0 -5 -5 -10 -11 -10 -15 0 -39 -26 -32 -34 4 -3 -13 -6
-36 -6 -26 0 -40 -4 -36 -10 6 -9 -8 -14 -28 -11 -4 0 -6 -2 -6 -6 4 -28 -20
-44 -71 -47 -8 -1 -15 -10 -15 -21 -1 -29 -13 -45 -35 -45 -13 0 -17 -5 -13
-20 4 -16 0 -20 -19 -20 -23 0 -25 -4 -23 -40 1 -22 -2 -40 -7 -40 -5 0 -6 5
-3 10 10 16 -11 12 -25 -5 -9 -11 -9 -15 -1 -15 7 0 9 -4 6 -10 -3 -5 -1 -10
5 -10 6 0 8 -5 5 -10 -4 -6 -10 -8 -15 -5 -4 3 -6 -4 -3 -15 4 -14 0 -20 -11
-20 -10 0 -13 -5 -9 -16 4 -11 8 -12 13 -4 4 7 13 11 20 8 10 -3 10 -7 -1 -18
-15 -16 -21 -60 -7 -60 4 0 8 -9 8 -21 0 -13 -4 -18 -12 -13 -9 5 -9 2 1 -9 7
-9 20 -17 28 -17 8 0 11 -4 8 -10 -3 -5 -1 -10 4 -10 6 0 11 -7 11 -16 0 -8 5
-12 10 -9 10 6 14 -1 24 -47 4 -18 13 -28 24 -28 15 0 15 2 2 10 -11 7 -12 10
-2 10 8 0 16 -9 19 -20 3 -11 12 -20 20 -20 8 0 17 -9 20 -19 3 -11 13 -21 24
-24 10 -3 19 -13 19 -22 0 -9 4 -14 9 -10 5 3 15 -1 23 -8 7 -7 21 -16 31 -20
9 -3 17 -13 17 -22 0 -9 6 -15 13 -13 6 2 26 -7 44 -20 33 -23 48 -28 38 -12
-3 6 -1 10 6 10 6 0 9 -8 6 -20 -3 -13 0 -20 9 -20 8 0 14 5 14 10 0 6 6 5 14
-2 8 -7 12 -16 9 -20 -2 -5 1 -8 8 -8 7 0 24 -10 37 -22 14 -13 22 -17 18 -10
-11 19 8 14 32 -8 12 -11 32 -20 46 -20 14 0 28 -4 31 -10 3 -5 17 -10 31 -10
16 0 23 -4 18 -11 -4 -8 4 -9 27 -4 l34 7 -20 -23 c-11 -13 -13 -19 -5 -13 8
7 25 10 38 8 16 -3 21 0 16 8 -5 7 -3 8 5 4 7 -5 10 -14 7 -22 -4 -11 0 -11
19 2 19 12 28 13 45 4 16 -9 25 -8 36 1 12 10 13 9 8 -5 -4 -10 -1 -16 9 -16
8 0 17 5 19 10 2 6 13 2 26 -10 12 -11 22 -17 22 -12 0 8 38 9 65 2 6 -1 12
-2 15 0 3 1 15 3 28 6 12 2 32 6 45 8 12 3 22 6 22 7 0 1 33 3 73 3 42 1 72
-2 72 -8 0 -6 5 -5 12 2 7 7 33 12 58 12 41 0 155 37 185 60 9 6 47 18 83 26
6 1 12 -1 12 -5 0 -12 -55 -95 -73 -109 -9 -8 -13 -20 -10 -29 4 -11 2 -14 -5
-9 -7 4 -12 2 -12 -5 0 -7 -7 -21 -17 -31 -9 -11 -11 -18 -5 -18 7 0 12 5 12
12 0 6 3 9 6 5 9 -9 64 45 57 56 -3 6 -1 7 5 4 5 -4 33 19 60 50 88 101 94
107 128 149 19 23 34 46 34 52 0 6 4 12 10 14 18 6 171 272 166 290 -2 10 1
16 7 15 14 -3 90 195 121 317 42 161 57 265 62 436 4 145 3 174 -15 240 l-21
75 5 -62 c3 -45 1 -61 -8 -57 -9 3 -12 -38 -13 -163 -2 -164 -16 -283 -48
-398 -19 -68 -20 -36 -1 50 21 94 31 433 16 543 -10 78 -55 248 -70 264 -3 4
-5 -16 -4 -45z m130 -289 c-3 -8 -6 -5 -6 6 -1 11 2 17 5 13 3 -3 4 -12 1 -19z
m-587 -328 c0 -5 -2 -10 -4 -10 -3 0 -8 5 -11 10 -3 6 -1 10 4 10 6 0 11 -4
11 -10z m-1383 -238 c-10 -2 -14 -9 -11 -15 4 -7 2 -7 -7 1 -12 11 -12 14 1
22 8 5 19 6 25 2 6 -4 3 -8 -8 -10z m1880 -34 c-3 -8 -6 -5 -6 6 -1 11 2 17 5
13 3 -3 4 -12 1 -19z m-10 -40 c-3 -8 -6 -5 -6 6 -1 11 2 17 5 13 3 -3 4 -12
1 -19z m-10 -40 c-3 -8 -6 -5 -6 6 -1 11 2 17 5 13 3 -3 4 -12 1 -19z"/>
<path d="M7151 5494 c0 -11 3 -14 6 -6 3 7 2 16 -1 19 -3 4 -6 -2 -5 -13z"/>
<path d="M4941 4574 c0 -11 3 -14 6 -6 3 7 2 16 -1 19 -3 4 -6 -2 -5 -13z"/>
<path d="M4940 4439 c0 -5 5 -7 10 -4 6 3 10 8 10 11 0 2 -4 4 -10 4 -5 0 -10
-5 -10 -11z"/>
<path d="M3065 4364 c-159 -25 -272 -51 -395 -90 -60 -19 -76 -28 -77 -44 -1
-11 3 -20 9 -20 6 0 3 -9 -8 -21 -10 -12 -14 -23 -9 -27 13 -10 18 -35 5 -27
-13 8 -13 -25 0 -45 10 -17 67 -19 165 -8 47 6 53 6 28 -2 -18 -6 -33 -12 -33
-14 0 -3 167 1 280 7 47 3 145 9 218 13 73 3 131 8 130 9 -6 6 -109 18 -203
24 l-100 6 160 14 c88 7 163 15 167 18 9 5 -19 51 -42 71 -10 9 -10 11 -1 6 7
-4 12 -3 10 2 -26 61 -63 134 -66 130 -2 -2 7 -29 21 -60 14 -31 21 -54 17
-51 -5 2 -21 34 -36 70 -33 77 -18 75 -240 39z m-42 -251 c-7 -2 -19 -2 -25 0
-7 3 -2 5 12 5 14 0 19 -2 13 -5z m-80 -10 c-7 -2 -21 -2 -30 0 -10 3 -4 5 12
5 17 0 24 -2 18 -5z m-80 -10 c-7 -2 -19 -2 -25 0 -7 3 -2 5 12 5 14 0 19 -2
13 -5z"/>
<path d="M3505 4372 c-28 -3 -79 -42 -55 -42 5 0 9 -3 8 -7 -4 -15 26 -82 34
-77 4 3 5 -1 3 -9 -6 -15 26 -57 44 -57 7 0 10 -4 6 -10 -3 -5 6 -3 21 5 17 9
34 11 48 5 13 -5 30 -4 41 3 10 5 36 12 58 15 37 4 77 31 77 51 0 11 -25 21
-56 21 -13 0 -24 5 -24 10 0 6 -3 9 -7 9 -27 -4 -63 3 -58 11 3 6 1 10 -4 10
-15 0 -14 27 2 33 6 3 2 6 -10 6 -12 1 -23 5 -25 9 -4 11 -64 19 -103 14z
m112 -38 c-3 -3 -12 -4 -19 -1 -8 3 -5 6 6 6 11 1 17 -2 13 -5z m158 -84 c3
-6 -1 -7 -9 -4 -18 7 -21 14 -7 14 6 0 13 -4 16 -10z"/>
<path d="M4521 4213 c-19 -4 -21 -7 -10 -14 11 -7 11 -9 1 -9 -7 0 -11 -4 -7
-10 3 -5 13 -7 23 -4 14 5 14 4 2 -4 -8 -6 -17 -9 -21 -6 -4 2 -9 0 -11 -5 -1
-6 -35 -11 -74 -12 l-70 -2 0 -29 c1 -17 8 -34 19 -39 9 -6 15 -14 12 -20 -4
-5 6 -14 20 -19 14 -5 23 -14 20 -20 -3 -5 0 -7 8 -4 8 3 18 0 23 -7 4 -7 3
-10 -2 -6 -5 3 -10 -3 -10 -14 0 -11 4 -15 9 -10 11 11 77 -17 77 -32 0 -5 7
-7 15 -3 8 3 15 2 15 -3 0 -7 75 -46 90 -46 3 0 10 -3 15 -7 6 -3 33 -15 60
-26 28 -11 95 -38 150 -60 55 -22 168 -68 250 -102 173 -72 222 -91 439 -168
110 -38 161 -52 164 -44 2 7 13 12 24 12 28 0 74 29 89 57 7 13 16 23 19 23
11 0 34 59 27 67 -4 3 3 14 15 24 18 16 19 19 4 19 -9 0 -14 5 -11 10 3 6 0
10 -9 10 -8 0 -16 3 -18 8 -1 4 -70 33 -153 65 -82 32 -158 63 -168 68 -10 5
-22 7 -27 4 -6 -4 -10 -2 -10 2 0 9 -124 59 -136 54 -4 -1 -10 1 -13 6 -11 16
-111 54 -123 47 -6 -4 -8 -3 -5 3 7 11 -158 83 -194 86 -10 1 -16 4 -13 8 2 3
-14 9 -36 13 -22 3 -40 10 -40 15 0 5 -17 15 -37 23 -38 13 -46 15 -71 17 -7
0 -10 6 -7 11 4 7 -3 9 -19 6 -15 -3 -24 -1 -22 3 3 4 -39 19 -92 34 -114 30
-148 36 -181 30z"/>
<path d="M4910 4140 c0 -4 14 -13 30 -19 17 -5 30 -8 30 -6 0 2 -13 10 -30 19
-16 8 -30 11 -30 6z"/>
<path d="M2090 4071 c-36 -16 -86 -38 -112 -49 -26 -12 -49 -29 -53 -41 -3
-12 -10 -21 -15 -21 -9 0 -8 -12 4 -47 11 -33 64 -39 143 -18 67 18 120 53
120 79 0 9 -3 16 -7 16 -14 0 -27 46 -19 68 5 12 5 22 1 22 -4 0 0 5 8 10 29
18 -5 9 -70 -19z"/>
<path d="M5040 4080 c8 -5 20 -10 25 -10 6 0 3 5 -5 10 -8 5 -19 10 -25 10 -5
0 -3 -5 5 -10z"/>
<path d="M5086 4071 c-5 -8 177 -86 459 -196 140 -56 168 -65 215 -72 54 -8
35 1 -82 40 -113 38 -300 110 -409 158 -36 16 -73 29 -82 29 -9 0 -19 5 -22
10 -3 6 -15 10 -25 10 -10 0 -25 7 -34 15 -8 8 -17 11 -20 6z"/>
<path d="M7970 4055 c-25 -13 -41 -24 -37 -25 5 0 17 5 28 10 10 6 19 8 19 6
0 -6 -55 -36 -65 -36 -3 0 -3 5 1 12 5 7 3 8 -5 3 -9 -5 -9 -11 -3 -17 7 -7
25 -5 55 7 25 9 51 15 59 13 14 -5 -88 -38 -119 -38 -10 0 -31 -7 -47 -15 -16
-9 -36 -13 -43 -11 -7 3 -13 1 -13 -5 0 -6 -4 -8 -10 -4 -5 3 -31 -5 -57 -18
-26 -13 -98 -41 -160 -63 -61 -21 -107 -42 -101 -45 6 -4 -8 -13 -32 -19 -33
-9 -40 -14 -30 -23 10 -9 14 -9 17 1 3 6 9 12 14 12 6 0 8 -4 4 -9 -3 -6 7 -6
26 -1 17 5 34 9 38 8 11 -3 127 25 153 36 10 5 29 9 42 10 13 0 22 4 19 9 -2
4 5 7 16 7 19 0 49 10 98 32 11 6 27 7 34 3 8 -5 10 -4 5 3 -4 7 -1 13 8 13
28 2 32 4 84 28 28 13 49 27 47 32 -3 4 4 5 15 2 12 -3 22 1 26 11 3 9 10 14
14 11 5 -3 15 2 24 10 8 9 19 14 23 13 16 -6 14 40 -2 46 -9 3 -13 2 -10 -4 3
-6 2 -10 -4 -10 -5 0 -11 4 -13 10 -7 21 -73 18 -118 -5z m90 -39 c0 -2 -7 -7
-16 -10 -8 -3 -12 -2 -9 4 6 10 25 14 25 6z m-115 -55 c-102 -50 -188 -84
-180 -71 3 5 10 10 15 10 5 0 41 16 82 36 40 19 61 33 46 29 -18 -3 -28 -1
-28 6 0 7 12 10 32 7 17 -3 43 1 57 8 14 8 33 14 41 14 8 0 -21 -18 -65 -39z
m-258 -97 c-3 -3 -12 -4 -19 -1 -8 3 -5 6 6 6 11 1 17 -2 13 -5z m-40 -10 c-3
-3 -12 -4 -19 -1 -8 3 -5 6 6 6 11 1 17 -2 13 -5z"/>
<path d="M1905 4010 c4 -6 11 -8 16 -5 14 9 11 15 -7 15 -8 0 -12 -5 -9 -10z"/>
<path d="M8217 3993 c5 -15 3 -16 -8 -5 -7 6 -21 12 -31 12 -24 0 -68 -21 -63
-31 3 -4 -5 -11 -17 -15 -13 -3 -54 -26 -93 -49 -38 -23 -135 -68 -215 -100
-80 -31 -152 -63 -161 -71 -9 -8 -19 -11 -24 -7 -4 5 -5 3 -2 -3 4 -7 0 -14
-8 -18 -8 -3 -15 -12 -15 -21 0 -8 -5 -15 -12 -15 -6 0 -1 -9 12 -20 25 -22
20 -26 -10 -10 -16 8 -18 8 -14 -5 4 -8 15 -15 26 -15 12 0 17 -4 12 -12 -5
-8 -2 -9 9 -5 10 3 17 2 17 -2 0 -25 309 115 486 220 55 32 106 59 112 59 7 0
12 5 12 10 0 6 5 10 11 10 38 0 -129 -106 -338 -215 -62 -33 -111 -61 -108
-63 8 -8 298 139 379 193 115 75 122 85 117 163 -1 24 -21 31 -21 7 0 -13 -4
-12 -22 5 -27 25 -39 26 -31 3z m-17 -49 c0 -8 -4 -12 -10 -9 -5 3 -10 10 -10
16 0 5 5 9 10 9 6 0 10 -7 10 -16z"/>
<path d="M2455 3930 c3 -5 11 -10 16 -10 6 0 7 5 4 10 -3 6 -11 10 -16 10 -6
0 -7 -4 -4 -10z"/>
<path d="M2418 3913 c7 -3 16 -2 19 1 4 3 -2 6 -13 5 -11 0 -14 -3 -6 -6z"/>
<path d="M2345 3900 c-25 -11 1 -11 35 0 20 6 21 8 5 8 -11 0 -29 -3 -40 -8z"/>
<path d="M5768 3903 c7 -3 16 -2 19 1 4 3 -2 6 -13 5 -11 0 -14 -3 -6 -6z"/>
<path d="M2280 3890 c-24 -8 -23 -8 8 -9 17 -1 32 4 32 9 0 11 -5 11 -40 0z"/>
<path d="M2237 3869 c7 -7 15 -10 18 -7 3 3 -2 9 -12 12 -14 6 -15 5 -6 -5z"/>
<path d="M2101 3848 c-35 -11 -71 -27 -80 -35 -14 -15 -12 -16 24 -11 22 3 74
16 115 28 57 18 70 25 55 31 -29 11 -43 9 -114 -13z"/>
<path d="M4660 3860 c8 -5 20 -10 25 -10 6 0 3 5 -5 10 -8 5 -19 10 -25 10 -5
0 -3 -5 5 -10z"/>
<path d="M4740 3830 c8 -5 11 -10 5 -10 -5 0 -2 -5 8 -11 14 -8 22 -8 30 1 9
8 7 9 -7 4 -13 -5 -17 -4 -13 3 4 6 0 14 -9 17 -24 9 -31 7 -14 -4z"/>
<path d="M4796 3802 c-8 -13 65 -45 77 -33 6 6 -3 15 -28 25 -44 19 -42 18
-49 8z"/>
<path d="M4886 3763 c-3 -8 -2 -12 3 -8 5 3 11 1 13 -5 2 -6 13 -12 25 -14 12
-3 31 -10 43 -16 11 -6 26 -8 33 -4 6 4 9 3 4 -1 -6 -7 143 -78 188 -89 6 -2
26 -10 45 -19 19 -8 38 -13 42 -11 5 3 8 0 8 -7 0 -8 4 -8 16 1 12 11 15 11
12 0 -2 -9 13 -18 45 -25 27 -5 45 -14 40 -18 -4 -5 1 -5 11 -1 12 5 17 4 13
-3 -4 -6 3 -8 17 -6 12 3 29 -2 37 -9 8 -8 20 -13 28 -10 8 3 -24 20 -70 39
-234 94 -343 134 -356 129 -8 -3 -11 -1 -8 4 7 11 -60 42 -92 42 -13 0 -21 3
-19 7 2 3 -13 14 -34 23 -33 14 -39 14 -44 1z"/>
<path d="M6430 3710 c0 -5 5 -10 10 -10 6 0 10 5 10 10 0 6 -4 10 -10 10 -5 0
-10 -4 -10 -10z"/>
<path d="M4785 3650 c-3 -5 1 -10 10 -10 9 0 13 5 10 10 -3 6 -8 10 -10 10 -2
0 -7 -4 -10 -10z"/>
<path d="M4816 3615 c5 -13 9 -13 23 -3 9 7 18 14 20 15 2 2 -8 3 -22 3 -20 0
-25 -4 -21 -15z"/>
<path d="M4890 3611 c0 -4 -11 -6 -25 -3 -39 7 -30 -14 30 -73 38 -37 61 -52
72 -48 11 4 14 3 9 -5 -4 -7 -2 -12 4 -12 6 0 8 -5 4 -12 -5 -8 -2 -9 11 -4
11 4 22 2 27 -6 6 -10 10 -10 19 2 8 12 9 10 4 -7 -5 -20 -3 -23 19 -23 15 0
34 -4 44 -9 34 -18 67 -29 82 -30 8 0 32 -4 53 -9 27 -7 37 -7 37 2 0 8 3 7 8
-1 4 -7 25 -11 49 -10 36 2 40 0 30 -12 -9 -12 -9 -13 1 -7 7 4 31 9 53 10 49
4 75 24 41 32 -12 4 -22 10 -22 15 0 5 -11 9 -25 9 -14 0 -24 5 -23 12 2 8 -8
12 -24 12 -15 -1 -25 2 -23 6 5 7 -32 23 -47 21 -5 -1 -8 4 -8 10 0 5 -4 7
-10 4 -5 -3 -10 -1 -10 4 0 6 -7 11 -15 11 -8 0 -23 4 -33 9 -9 5 -38 15 -64
23 -27 7 -48 16 -48 20 0 4 -12 8 -26 8 -14 0 -23 4 -20 9 3 5 0 9 -7 8 -40
-1 -58 4 -51 15 5 7 2 9 -8 5 -9 -3 -26 2 -39 10 -15 11 -20 12 -14 3 5 -9 0
-8 -16 3 -26 19 -39 21 -39 8z m579 -235 c-2 -2 -17 -6 -34 -10 -22 -5 -26 -4
-15 4 14 9 59 15 49 6z"/>
<path d="M7755 3610 c-3 -6 1 -7 9 -4 18 7 21 14 7 14 -6 0 -13 -4 -16 -10z"/>
<path d="M6500 3600 c0 -5 -9 -10 -20 -10 -11 0 -20 -5 -20 -11 0 -6 -10 -19
-22 -29 l-23 -18 23 -20 c21 -18 31 -39 14 -28 -5 3 -9 -2 -9 -10 0 -11 8 -13
29 -10 15 2 28 0 28 -5 0 -16 45 -5 52 13 4 11 13 15 23 12 11 -4 15 0 15 16
l0 23 20 -23 20 -23 0 21 c0 30 -3 38 -15 34 -5 -2 -4 2 3 9 6 7 12 16 12 21
0 11 -33 -3 -48 -21 -10 -14 -12 -14 -10 -1 2 8 11 23 21 32 18 16 18 17 -5
15 -12 0 -26 -6 -30 -12 -5 -6 -8 -6 -8 3 0 6 -8 12 -17 12 -11 0 -14 -3 -8
-8 14 -9 17 -50 4 -57 -5 -4 -9 5 -9 19 0 14 -4 27 -10 31 -5 3 -7 12 -3 20 3
8 2 15 -1 15 -3 0 -6 -4 -6 -10z m-16 -56 c3 -8 2 -12 -4 -9 -6 3 -10 10 -10
16 0 14 7 11 14 -7z m56 -48 c0 -3 -4 -8 -10 -11 -5 -3 -10 -1 -10 4 0 6 5 11
10 11 6 0 10 -2 10 -4z"/>
<path d="M5547 3509 c7 -7 15 -10 18 -7 3 3 -2 9 -12 12 -14 6 -15 5 -6 -5z"/>
<path d="M5720 3346 c0 -2 7 -6 15 -10 8 -3 15 -1 15 4 0 6 -7 10 -15 10 -8 0
-15 -2 -15 -4z"/>
<path d="M5698 3323 c7 -3 16 -2 19 1 4 3 -2 6 -13 5 -11 0 -14 -3 -6 -6z"/>
</g>
</svg>
